<svg width="310" height="506" viewBox="0 0 310 506" fill="none" xmlns="http://www.w3.org/2000/svg">
<rect width="310" height="506" fill="#B3B3B3"/>
<path d="M144.732 210.636V247H138.873L121.739 222.231H121.437V247H114.849V210.636H120.744L137.861 235.423H138.18V210.636H144.732ZM163.522 247.533C160.859 247.533 158.551 246.947 156.597 245.775C154.644 244.603 153.129 242.964 152.052 240.857C150.987 238.75 150.454 236.287 150.454 233.47C150.454 230.653 150.987 228.185 152.052 226.066C153.129 223.947 154.644 222.302 156.597 221.13C158.551 219.958 160.859 219.372 163.522 219.372C166.185 219.372 168.494 219.958 170.447 221.13C172.4 222.302 173.909 223.947 174.975 226.066C176.052 228.185 176.59 230.653 176.59 233.47C176.59 236.287 176.052 238.75 174.975 240.857C173.909 242.964 172.4 244.603 170.447 245.775C168.494 246.947 166.185 247.533 163.522 247.533ZM163.558 242.384C165.002 242.384 166.209 241.987 167.18 241.194C168.15 240.389 168.872 239.312 169.346 237.962C169.831 236.613 170.074 235.11 170.074 233.452C170.074 231.783 169.831 230.274 169.346 228.925C168.872 227.563 168.15 226.48 167.18 225.675C166.209 224.871 165.002 224.468 163.558 224.468C162.078 224.468 160.847 224.871 159.864 225.675C158.894 226.48 158.166 227.563 157.68 228.925C157.207 230.274 156.97 231.783 156.97 233.452C156.97 235.11 157.207 236.613 157.68 237.962C158.166 239.312 158.894 240.389 159.864 241.194C160.847 241.987 162.078 242.384 163.558 242.384ZM195.664 219.727V224.699H179.986V219.727H195.664ZM183.857 213.193H190.284V238.797C190.284 239.661 190.415 240.324 190.675 240.786C190.947 241.235 191.302 241.543 191.74 241.709C192.178 241.875 192.664 241.957 193.196 241.957C193.599 241.957 193.966 241.928 194.297 241.869C194.64 241.809 194.901 241.756 195.078 241.709L196.161 246.734C195.818 246.852 195.327 246.982 194.688 247.124C194.06 247.266 193.291 247.349 192.38 247.373C190.77 247.42 189.32 247.178 188.029 246.645C186.739 246.1 185.715 245.26 184.958 244.124C184.212 242.987 183.845 241.567 183.857 239.862V213.193ZM83.0378 295V258.636H106.333V264.158H89.6252V274.031H104.735V279.553H89.6252V295H83.0378ZM121.945 295.533C119.282 295.533 116.973 294.947 115.02 293.775C113.067 292.603 111.552 290.964 110.475 288.857C109.409 286.75 108.877 284.287 108.877 281.47C108.877 278.653 109.409 276.185 110.475 274.066C111.552 271.947 113.067 270.302 115.02 269.13C116.973 267.958 119.282 267.372 121.945 267.372C124.608 267.372 126.917 267.958 128.87 269.13C130.823 270.302 132.332 271.947 133.397 274.066C134.475 276.185 135.013 278.653 135.013 281.47C135.013 284.287 134.475 286.75 133.397 288.857C132.332 290.964 130.823 292.603 128.87 293.775C126.917 294.947 124.608 295.533 121.945 295.533ZM121.98 290.384C123.425 290.384 124.632 289.987 125.603 289.194C126.573 288.389 127.295 287.312 127.769 285.962C128.254 284.613 128.497 283.11 128.497 281.452C128.497 279.783 128.254 278.274 127.769 276.925C127.295 275.563 126.573 274.48 125.603 273.675C124.632 272.871 123.425 272.468 121.98 272.468C120.501 272.468 119.27 272.871 118.287 273.675C117.317 274.48 116.589 275.563 116.103 276.925C115.63 278.274 115.393 279.783 115.393 281.452C115.393 283.11 115.63 284.613 116.103 285.962C116.589 287.312 117.317 288.389 118.287 289.194C119.27 289.987 120.501 290.384 121.98 290.384ZM157.851 283.53V267.727H164.279V295H158.047V290.153H157.763C157.147 291.68 156.135 292.929 154.726 293.899C153.33 294.87 151.607 295.355 149.559 295.355C147.772 295.355 146.192 294.959 144.819 294.165C143.457 293.361 142.392 292.195 141.623 290.668C140.853 289.129 140.469 287.27 140.469 285.092V267.727H146.896V284.098C146.896 285.826 147.37 287.199 148.317 288.217C149.264 289.235 150.506 289.744 152.045 289.744C152.992 289.744 153.91 289.513 154.797 289.052C155.685 288.59 156.413 287.904 156.981 286.992C157.561 286.069 157.851 284.915 157.851 283.53ZM177.316 279.02V295H170.888V267.727H177.032V272.362H177.352C177.979 270.835 178.979 269.621 180.352 268.722C181.737 267.822 183.448 267.372 185.484 267.372C187.366 267.372 189.005 267.775 190.402 268.58C191.811 269.384 192.9 270.55 193.669 272.077C194.45 273.604 194.835 275.457 194.823 277.635V295H188.396V278.629C188.396 276.806 187.922 275.38 186.975 274.35C186.04 273.32 184.744 272.805 183.087 272.805C181.962 272.805 180.962 273.054 180.086 273.551C179.222 274.036 178.541 274.741 178.044 275.664C177.559 276.587 177.316 277.706 177.316 279.02ZM211.478 295.479C209.335 295.479 207.418 294.929 205.725 293.828C204.032 292.727 202.695 291.129 201.712 289.034C200.73 286.939 200.239 284.394 200.239 281.399C200.239 278.369 200.736 275.812 201.73 273.729C202.736 271.634 204.092 270.053 205.796 268.988C207.501 267.911 209.401 267.372 211.496 267.372C213.094 267.372 214.408 267.644 215.438 268.189C216.467 268.722 217.284 269.367 217.888 270.124C218.491 270.87 218.959 271.574 219.29 272.237H219.557V258.636H226.002V295H219.681V290.703H219.29C218.959 291.366 218.48 292.07 217.852 292.816C217.225 293.55 216.396 294.177 215.366 294.698C214.337 295.219 213.04 295.479 211.478 295.479ZM213.271 290.206C214.633 290.206 215.793 289.839 216.751 289.105C217.71 288.359 218.438 287.324 218.935 285.998C219.433 284.672 219.681 283.127 219.681 281.364C219.681 279.6 219.433 278.067 218.935 276.765C218.45 275.463 217.728 274.451 216.769 273.729C215.822 273.007 214.656 272.646 213.271 272.646C211.839 272.646 210.643 273.018 209.685 273.764C208.726 274.51 208.004 275.54 207.518 276.854C207.033 278.168 206.79 279.671 206.79 281.364C206.79 283.068 207.033 284.589 207.518 285.927C208.016 287.253 208.744 288.3 209.702 289.07C210.673 289.827 211.863 290.206 213.271 290.206Z" fill="white"/>
</svg>
